<?xml version="1.0" encoding="utf-8"?>
<!-- Generator: Adobe Illustrator 16.0.0, SVG Export Plug-In . SVG Version: 6.00 Build 0)  -->
<!DOCTYPE svg PUBLIC "-//W3C//DTD SVG 1.1//EN" "http://www.w3.org/Graphics/SVG/1.1/DTD/svg11.dtd">
<svg version="1.1" id="Calque_1" xmlns="http://www.w3.org/2000/svg" xmlns:xlink="http://www.w3.org/1999/xlink" x="0px" y="0px"
	 width="200px" height="200px" viewBox="0 0 200 200" enable-background="new 0 0 200 200" xml:space="preserve">
<g id="Calque_1_1_" display="none">
	<g display="inline">
		<g>
			<path fill="#434A54" d="M110.955,121.243l-5.081-20.265c9.405-4.695,15.995-15.558,15.995-28.253c0-16.989,0-30.74-26.361-30.74
				c-26.634,0.274-26.36,13.772-26.36,30.761c0,12.696,6.589,23.592,15.995,28.287l-5.081,20.208C33.694,123.068,34,134,34,156
				h123.018C157.018,134,157.323,123.07,110.955,121.243z"/>
		</g>
	</g>
</g>
<g id="Calque_2" display="none">
	<g display="inline">
		<g>
			<path fill="#494949" d="M150.779,89.805h-9.996l0.029-29.453c0-17.523-18.201-31.723-40.705-31.723
				c-22.473,0-40.704,14.199-40.704,31.723l-0.189,29.453H49c-5.625,0-9.957,4.535-9.957,8.922l-0.219,63.725
				c0,4.381,4.77,8.921,10.396,8.921H151.02c5.605,0,9.938-4.54,9.938-8.921l0.219-63.725
				C161.176,94.34,156.387,89.805,150.779,89.805z M120.252,89.805H79.608V59.217c0-8.742,9.3-14.731,20.501-14.731
				c11.211,0,20.282,5.989,20.282,14.731L120.252,89.805z"/>
		</g>
	</g>
</g>
<g id="Calque_3" display="none">
	<g display="inline">
		<g>
			<g>
				<path fill="#434A54" d="M120.111,102.797c-11.316-8.058-15.541-11.861-8.299-18.251c7.242-6.389,12.981-11.561,12.981-23.432
					c0-11.872-9.813-17.943-9.813-17.943s7.094,1.056,10.869-1.076c3.776-2.119,5.43-3.493,5.43-3.493H95.204
					c-7.229,0-27.303,8.21-27.303,27.377c0,19.175,20.819,23.283,28.373,22.979c-4.237,5.171-0.609,9.889,1.665,12.308
					c2.261,2.438,1.8,3.195-0.907,3.195c-2.721,0-36.224,0.365-36.224,24.352c0,23.987,44.521,25.721,59.154,12.793
					C134.596,128.68,131.428,110.852,120.111,102.797z M98.683,84.234c-17.963,0-26.111-41.977-4.981-41.977
					C110.148,41.642,122.521,84.234,98.683,84.234z M96.558,142.96c-14.931,0-22.931-7.452-22.931-18.56
					c0-11.113,10.87-16.59,31.242-16.59c5.521,4.258,15.391,9.43,15.391,19.785C120.26,137.943,111.475,142.96,96.558,142.96z"/>
			</g>
		</g>
	</g>
</g>
<g id="Calque_4">
	<path fill="#FFFFFF" d="M130.654,81.672h-20.826v-15.2c0-4.662,4.822-5.744,7.072-5.744c2.236,0,13.455,0,13.455,0V40.216
		l-15.42-0.08c-21.04,0-25.839,15.295-25.839,25.102v16.434H73.831v21.135h15.266c0,27.133,0,57.058,0,57.058h20.732
		c0,0,0-30.232,0-57.058h17.61L130.654,81.672z"/>
</g>
</svg>
