<?xml version="1.0" encoding="utf-8"?>
<!-- Generator: Adobe Illustrator 17.1.0, SVG Export Plug-In . SVG Version: 6.00 Build 0)  -->
<!DOCTYPE svg PUBLIC "-//W3C//DTD SVG 1.1//EN" "http://www.w3.org/Graphics/SVG/1.1/DTD/svg11.dtd">
<svg version="1.1" id="Layer_1" xmlns="http://www.w3.org/2000/svg" xmlns:xlink="http://www.w3.org/1999/xlink" x="0px" y="0px"
	 viewBox="0 0 433.7 169.7" enable-background="new 0 0 433.7 169.7" xml:space="preserve">
<g>
	<g>
		<path fill="#FFFFFF" d="M397.5,39c-4-5.6-9.5-10.5-16.2-12.2c-6.8-1.7-11.5-2.6-19.7-0.9c-13,2.6-15.4,7.9-16.7,9.8
			c-7.1,11-7.3,23-2.5,34.9c4.8,11.9,15.9,17.5,28.7,17.8c7.6,0.2,12.7-0.7,19.1-6c5.4-4.4,10.6-10.1,12.9-16.7
			C406.2,56.8,403,46.7,397.5,39z M390.3,63.9c-2.5,6.1-5.1,10.9-11,13.9c-6.8,3.4-14.6,2.2-21.4-3.5c-1.7-1.4-5.3-5.8-6.9-10.7
			c-1.2-3.6-1.8-8.2-0.8-12.4c1.2-4.8,2.9-5.9,5-9.4c2.1-3.5,5.3-6.5,9.2-7.8c4.5-1.5,9.4-0.5,14.1,0.5c2.4,0.5,3.6,1.7,4.4,2.7
			c0.4,0.6,1.4,3,1.5,3.2c1.6,6,6.6,7,7.9,12C393.2,56.3,391.8,60.3,390.3,63.9z"/>
		<g>
			<path fill="#FFFFFF" d="M365.3,50.8c0-1.5,1.1-2.2,2.5-1.6L372,51c1.4,0.6,3.6,1.7,4.8,2.5l2.2,1.3c1.3,0.8,1.3,2,0,2.7l-2.2,1.3
				c-1.3,0.7-3.5,1.8-4.9,2.4l-4.2,1.8c-1.4,0.6-2.5-0.1-2.5-1.6l0-2.6c0-1.5,0-3.9,0-5.4L365.3,50.8z"/>
		</g>
	</g>
	<path fill="#FFFFFF" d="M385.3,111.1c-11.8,6.7-23.4,13.6-36.4,17.7c-6.1,1.9-13.1,3.3-18.8,2.1c-2.5-0.5-4.7-1.5-6.4-2.9
		c-0.3-0.3-0.6-0.5-0.9-0.8c2.1-1.1,4.1-2.2,6-3.3c7.1-4.1,12.1-10.3,12.3-18.7c0.2-7.7-3.6-16.2-11.1-19
		c-6.9-2.5-14.4,0.9-19.2,5.9c-6.8,7-8.6,17.9-6.4,27.8c-0.5,0.1-1.1,0.1-1.6,0.1c-4.2,0.2-8.8-0.3-12.9-1.3
		c-5.5-1.4-8.5-5-10.1-9.5c0.3-0.2,0.7-0.5,1-0.7c4.2-3.1,7.6-6.9,10.8-11c7.8-10,14.2-21.1,19.2-32.8c4.1-9.6,8.6-21,6.4-31.6
		c-1-4.7-4.4-8.3-8.9-9.8c-5.8-2-11.7,0.9-16.1,4.4c-5.2,4.1-8.8,10.5-11.8,16.3c-3.6,7-6.5,14.4-9,21.9
		c-3.5,10.6-6.1,21.7-6.1,32.9c-4.4-0.3-9-0.3-12.8,2.3c-2.9,2-4.8,4.9-6.4,7.9c-0.4,0.7-0.7,1.3-1.1,2c-0.3-0.5-0.6-1.3-0.7-1.5
		c-0.4-1-0.7-1.9-1-2.9c-0.3-0.9-0.5-1.8-0.7-2.6c2-2,3.7-4.3,5.4-6.5c6.9-9.3,11.9-20.2,16.1-30.9c3.7-9.5,7.6-20.5,6.9-30.9
		c-0.3-4.9-1.9-9.4-6-12.4c-3.7-2.7-8.9-2.3-13-0.9c-11.2,3.8-16.5,15.6-19.7,26.2c-3.9,12.9-5.1,26.9-4.7,40.3
		c0.1,2.4,0.2,4.8,0.3,7.3c-0.6,0.1-1.3,0.1-2.2,0.2c-3.6,0.5-6.8,1.3-10.1,2.7c-3.2,1.4-5.6,4.3-6.6,7.7c-0.2,0.8-0.3,1.6-0.3,2.4
		c-0.1-0.2-0.2-0.4-0.3-0.5c-1.1-1.9-2.1-4-3.1-6c-0.1-0.2-0.2-0.4-0.3-0.7c7-11.1,12.8-23.2,16.5-35.7c3.4-11.4,6.9-35.6-10.7-36.4
		c-5.7-0.3-11.7,3.7-15.2,8c-4.7,5.8-7.2,13-8.5,20.2c-2.5,14-1.3,28.6,3.1,42.2c-2.4,3.5-4.8,6.8-7.6,9.9c-3.5,4-6.8,7.3-10.3,9.4
		c-0.2,0.1-1.1,0.5-1.5,0.7c-0.2,0-0.3,0.1-0.5,0.1c-0.2-0.4-0.6-1-0.5-0.5c-0.4-1-0.6-2.1-0.8-3.1c0-0.1,0-0.2-0.1-0.3
		c0-0.1,0-0.3-0.1-0.6c-0.1-0.7-0.1-1.4-0.1-2.1c-0.1-1.5-0.1-2.9,0-4.4c0.2-8.2,1.5-14.3,3.1-22.5c1.6-8.4-10.2-11.8-12.9-3.6
		c-2.1,6.5-3.1,13.3-5.1,19.9c-0.9,2.8-1.8,5.1-3.3,7.6c-1.1,1.9-2.8,3.3-4.1,3.7c-2.1,0.7-4.8,0.2-7.5-0.6
		c-2.5-0.8-3.1-2.2-3.6-4.2c-1.5-6,2.4-15.2,4.5-21.3c2.7-8.2-10.2-11.7-12.9-3.6c-0.1,0.4-0.3,0.9-0.4,1.3
		c-4.9-2.8-11.1-3.3-16.8-2.9c-2.2,0.2-4.5,0.5-6.7,0.4c0.7-1,1.5-2,2.2-3c3.1-4.2,6.4-8.2,9.1-12.7c2.7-4.3,4.6-9.1,3.6-14.2
		c-1.3-6.2-8-8.2-13.4-8.6C91.7,44.4,79,51.3,68.8,58.1c-10.2,6.8-24.2,18-23.2,31.8c0.6,8.5,14,8.6,13.4,0c0-0.2,0-2-0.1-1.7
		c0.2-0.8,0.4-1.6,0.7-2.4c0,0,0.1-0.3,0.3-0.6c0.3-0.7,0.7-1.3,1.1-1.9c0.6-1,1.2-1.7,1.7-2.4c3.6-4.4,8.1-8,12.8-11.2
		c4.5-3.1,10.1-6.2,14.7-8.1c2.2-0.9,4.4-1.7,6.6-2.3c0.4-0.1,2.4-0.5,2-0.4c1.3-0.1,2.7-0.2,4.1-0.2c0.4,0,0.9,0,1.3,0
		c-0.3,0.5-0.6,1.1-0.9,1.6c-1.1,1.9-2.3,3.7-3.5,5.4c-2.6,3.7-5.5,7.2-8.1,10.9c-2,2.8-4.4,6.1-4.9,9.6c-0.4,3,0.2,5.9,3.1,7.5
		c7.5,4.5,15.8,2.9,24,2.7c3-0.1,5.1,0.4,7.1,2.5c0.8,0.9,0.9,2.6,0.6,4.1c-1.1,5.5-5.4,10.7-9.3,15c-4.2,4.7-9,8.9-13.9,12.9
		c-6.1,5-12.6,9.6-19.8,12.8c-0.4,0.2-1.9,0.7-2.7,1c-0.5,0.2-2.9,0.6-2.9,0.7c-0.7,0-2.3,0-2.2,0c-0.3-0.1-0.6-0.1-0.9-0.2
		c0,0-0.1,0-0.1,0c0,0,0,0,0,0c-0.2-0.1-0.5-0.3-0.7-0.4c0,0-0.1-0.1-0.2-0.2c-0.1-0.1-0.4-0.5-0.6-0.6c-0.2-0.2-0.3-0.5-0.5-0.7
		c-0.2-0.4-0.4-0.7-0.6-1.1c0.4,0.7-0.2-0.7-0.3-0.9c-0.4-1.2-0.7-2.5-0.9-3.7c-0.2-1.2-0.4-4.9-0.4-7.3c0-3.7,0.3-7.4,0.7-11.1
		c0.4-3.6-3.3-6.7-6.7-6.7c-4,0-6.3,3.1-6.7,6.7c-1.4,12.1-2.4,28.3,8.4,36.6c11.2,8.6,27.4-1.5,36.8-8
		c10.2-7.1,20.9-15.8,28.5-26.2c4.6,4.8,11.9,7.1,18.5,6.8c5-0.3,8.8-1.9,11.8-4.5c0.7,2,1.7,3.9,3.1,5.7c3.4,4.3,9.3,5.3,14.3,3.7
		c8.9-2.9,16.1-10.8,21.9-18.6c2,3.6,4.4,6.9,7.9,9.3c4.1,2.8,9.9,2.1,13.5-1.1c3.2-2.9,4.5-7.2,4.4-11.4c0,0,0-0.3,0-0.6
		c0,0,0,0,0,0c0,0.1,1.7-0.5,1.9-0.6c2.5-0.7,3.9-0.8,5.9-1c1.2,4.2,2.9,8.1,5.6,11.4c4.5,5.6,11.9,6.1,17.4,1.8
		c2.3-1.8,3.7-4.9,5-7.4c0.7-1.3,1.3-2.3,1.7-2.7c0.1-0.1,0.2-0.2,0.2-0.3c1.3-0.4,2.6-0.3,4-0.3c1,0,1.9,0.1,2.8,0.1
		c1.7,6,5.2,11.5,10.3,15.2c7.1,5.2,16.4,6,24.9,6.2c2.7,0.1,5.4-0.3,8-1c1.6,2.3,3.5,4.4,5.7,6c11.7,9.2,27.4,6.7,40.5,2.1
		c12.7-4.5,24.4-11.3,36.1-17.9C399.5,118.4,392.8,106.8,385.3,111.1z M199.6,63.5c0.6-5.9,2.9-13.3,5.8-16.9c0.4-0.5,0.9-1,1.3-1.4
		c0.1-0.1,0.7-0.6,0.8-0.7c0.6-0.4,1.2-0.7,1.8-1c-0.3,0.2,0.4-0.1,0.8-0.3c2.3,4.2,0.3,11.9-0.7,16.3c-2,8.4-5.4,16.5-9.5,24.3
		C198.9,77.1,198.8,70.3,199.6,63.5z M257.1,33.9C257.1,33.9,257.1,33.9,257.1,33.9c0,0-0.1-0.1-0.1-0.1
		C257,33.9,257.1,33.9,257.1,33.9z M257.8,34.5C257.8,34.5,257.8,34.5,257.8,34.5C258,34.6,258,34.7,257.8,34.5z M257.9,34.5
		C258,34.5,258,34.5,257.9,34.5C258.4,34.6,258.9,34.9,257.9,34.5z M251.2,38.6C251.2,38.6,251.2,38.6,251.2,38.6
		c0.1-0.1,0.2-0.2,0.3-0.4c0.3-0.4,0.7-0.8,1.1-1.2c0.2-0.2,0.4-0.4,0.6-0.5c0.1,0,0.6-0.5,0.8-0.6c0.4-0.3,0.8-0.5,1.2-0.7
		c0,0,0,0,0,0c0.1,0,0.1,0,0.2-0.1c0.3-0.1,1.3-0.3,1.9-0.5c0.1,0.2,0.1,0.4,0.1,0.6c0,0,0,0,0,0.1c0,0.4,0.1,0.7,0.1,1.1
		c0,1,0,1.9-0.1,2.9c0,0.4-0.2,2.2-0.2,2.4c-0.2,1.2-0.4,2.4-0.7,3.6c-1.2,5.5-3,10.9-5,16.2c-2.8,7.3-6.4,15.2-10.9,22.5
		c0.1-4.3,0.4-8.6,0.8-12.9C242.5,60.1,244.9,47.5,251.2,38.6z M245.9,112.2C246.4,112.5,246.2,112.4,245.9,112.2L245.9,112.2z
		 M304.2,35.8L304.2,35.8C304.4,36.1,304.5,36.3,304.2,35.8z M293,48.2c1.4-2.5,3.3-5.6,4.7-7.4c0.9-1.1,1.8-2.1,2.8-3
		c0.1,0,0.7-0.6,0.9-0.8c0.4-0.2,0.7-0.5,1.1-0.7c0.1,0,0.8-0.3,1-0.4c0.1,0,0.1,0,0.2-0.1c0,0,0.1,0,0.1,0c0.1,0,0.2,0,0.3,0
		c0.1,0.2,0.1,0.4,0.2,0.6c-0.1-0.4,0.1,1.5,0.1,2c0,0.8-0.1,1.5-0.1,2.3c0,0.2-0.1,0.9-0.1,1c-0.1,0.8-0.3,1.5-0.4,2.3
		c-1.1,5.1-3.3,11.1-5,15.1c-2.5,5.8-5.5,11.5-8.7,16.9c-2.8,4.8-6.6,10.4-9.4,13.9c-0.6,0.7-1.2,1.4-1.8,2.1
		c0.2-1.8,0.5-3.5,0.8-5.2C281.9,73.5,286.6,60,293,48.2z M325.5,98.7L325.5,98.7c0,0-0.1,0-0.1-0.1
		C325.4,98.7,325.5,98.7,325.5,98.7z M321.9,100c1.5-1,1.6-1,3-1.3c-0.9,0.2-0.2,0.2,0.3,0.1c-0.1,0.1,1,0.3,0.3,0c0,0,0,0,0,0
		c0.6,0.3,0.5,0.2,1.3,1.6c0.7,1.3,0.9,3.3,0.9,4.8c0.1,2.4-0.9,3.5-2.8,5.3c-2,1.8-4.9,3.2-7.6,4.4
		C316.4,109.2,317.3,103.1,321.9,100z"/>
</g>
</svg>
